<svg xmlns="http://www.w3.org/2000/svg" xmlns:xlink="http://www.w3.org/1999/xlink" xmlns:xodm="http://www.corel.com/coreldraw/odm/2003" xml:space="preserve" version="1.1" style="shape-rendering:geometricPrecision;text-rendering:geometricPrecision;image-rendering:optimizeQuality;" viewBox="0 0 100 125" x="0px" y="0px" fill-rule="evenodd" clip-rule="evenodd"><defs><style type="text/css">
   
    .fil0 {fill:none}
    .fil1 {fill:black;fill-rule:nonzero}
   
  </style></defs><g><g><rect class="fil0" width="100" height="100"/><path class="fil1" d="M62.26 79.41c0.22,-0.07 0.48,-0.15 0.81,-0.26 0.27,-0.09 0.54,-0.18 0.81,-0.27 0.47,-0.17 0.92,-0.35 1.34,-0.53 0.43,-0.19 0.87,-0.4 1.34,-0.63 0.48,-0.25 0.92,-0.49 1.32,-0.72 0.4,-0.23 0.83,-0.49 1.27,-0.78 0.33,-0.22 0.64,-0.43 0.92,-0.64 0.3,-0.23 0.59,-0.46 0.87,-0.71l0 0c0.17,-0.15 0.36,-0.32 0.5,-0.47 0.13,-0.14 0.24,-0.29 0.31,-0.44 0.05,-0.09 0.07,-0.19 0.06,-0.28 0,-0.12 -0.03,-0.27 -0.08,-0.44l0 -0.03c-0.04,-0.12 -0.08,-0.25 -0.13,-0.38l-0.01 -0.04c-0.05,-0.14 -0.1,-0.27 -0.15,-0.39l0 0 -0.33 -0.83 0 -0.01c-1.64,-3.44 -3.1,-7.07 -4.34,-10.86 -1.21,-3.72 -2.23,-7.6 -3.01,-11.61 -0.36,-1.86 -0.66,-3.71 -0.91,-5.56 -0.25,-1.88 -0.45,-3.73 -0.58,-5.55 -0.04,-0.44 0.3,-0.83 0.75,-0.87 0.44,-0.03 0.83,0.31 0.87,0.75 0.13,1.82 0.32,3.63 0.57,5.45 0.24,1.8 0.54,3.63 0.9,5.47 0.76,3.95 1.76,7.76 2.96,11.42 1.1,3.36 2.36,6.58 3.77,9.63l0.2 -0.23 0.42 -0.48c0.44,-0.52 0.88,-1.03 1.3,-1.56 0.03,-0.04 0.05,-0.09 0.09,-0.13 0.9,-1.16 1.62,-2.49 2.11,-3.91 0.47,-1.38 0.73,-2.86 0.73,-4.4 0,-0.54 -0.03,-1.06 -0.09,-1.57 -0.06,-0.46 -0.13,-0.92 -0.23,-1.37 -0.03,-0.05 -0.05,-0.11 -0.06,-0.18 -0.17,-0.71 -0.29,-1.44 -0.37,-2.18 -0.09,-0.74 -0.13,-1.48 -0.13,-2.23 0,-1.72 0.22,-3.39 0.63,-4.98 0.43,-1.63 1.06,-3.16 1.86,-4.56 0.02,-0.03 0.04,-0.05 0.05,-0.08 0.52,-0.8 1.23,-1.48 2.07,-1.96l0.07 -0.04c0.85,-0.47 1.83,-0.74 2.87,-0.74 1.65,0 3.13,0.67 4.21,1.74 0.38,0.38 0.7,0.8 0.96,1.27 0.04,-0.47 0.06,-0.94 0.05,-1.4 0,-0.39 -0.03,-0.79 -0.07,-1.2 -0.04,-0.38 -0.1,-0.78 -0.18,-1.18 -0.06,-0.35 -0.14,-0.7 -0.25,-1.02 -0.1,-0.31 -0.23,-0.61 -0.4,-0.88 -0.17,-0.29 -0.39,-0.55 -0.64,-0.77 -0.24,-0.21 -0.52,-0.39 -0.83,-0.52l-0.04 -0.02c-0.34,-0.15 -0.72,-0.24 -1.11,-0.28 -0.46,-0.05 -0.94,-0.03 -1.4,0.03 -0.55,0.08 -1.11,0.22 -1.66,0.4 -0.51,0.16 -1,0.36 -1.48,0.57 -0.03,0.02 -0.06,0.04 -0.09,0.06 -0.98,0.52 -1.89,1.35 -2.61,2.37 -0.71,1.01 -1.23,2.21 -1.47,3.49 -0.08,0.44 -0.5,0.73 -0.94,0.65 -0.44,-0.08 -0.73,-0.5 -0.65,-0.94 0.21,-1.15 0.62,-2.24 1.17,-3.22l-0.1 0.04c-0.51,0.23 -1.04,0.44 -1.6,0.61 -0.54,0.16 -1.1,0.29 -1.66,0.37 -0.52,0.08 -1.06,0.11 -1.6,0.1 -0.17,-0.01 -0.33,-0.02 -0.49,-0.04 0.91,1.04 1.85,2.06 2.82,3.06 0.31,0.33 0.3,0.84 -0.02,1.15 -0.33,0.31 -0.84,0.3 -1.15,-0.02 -1.32,-1.37 -2.58,-2.76 -3.79,-4.17 -0.81,-0.94 -1.59,-1.9 -2.36,-2.87 -0.37,-0.43 -0.72,-0.88 -1.05,-1.36l-0.09 -0.11c-0.03,-0.04 -0.05,-0.08 -0.08,-0.13 -0.72,-1.07 -1.37,-2.25 -1.92,-3.48 -1.31,-2.93 -2.08,-6.15 -2.08,-8.8 0,-3.04 -1.23,-5.79 -3.23,-7.78 -1.99,-1.99 -4.74,-3.23 -7.78,-3.23 -3.04,0 -5.79,1.24 -7.78,3.23 -2,1.99 -3.23,4.74 -3.23,7.78 0,2.65 -0.77,5.87 -2.08,8.8 -0.86,1.93 -1.96,3.74 -3.24,5.19 -0.74,0.94 -1.49,1.85 -2.27,2.76 -1.2,1.41 -2.47,2.8 -3.79,4.17 -0.31,0.32 -0.82,0.33 -1.14,0.02 -0.33,-0.31 -0.34,-0.82 -0.03,-1.15 0.97,-1 1.91,-2.02 2.82,-3.06 -0.15,0.02 -0.31,0.03 -0.48,0.04 -0.54,0.01 -1.08,-0.02 -1.6,-0.1 -0.56,-0.08 -1.12,-0.21 -1.66,-0.37 -0.56,-0.17 -1.09,-0.38 -1.6,-0.61l-0.04 -0.02 -0.01 -0.01c0.54,0.98 0.94,2.06 1.16,3.21 0.08,0.44 -0.22,0.86 -0.66,0.94 -0.44,0.08 -0.86,-0.21 -0.94,-0.65 -0.24,-1.28 -0.76,-2.48 -1.47,-3.49 -0.71,-1.02 -1.62,-1.85 -2.6,-2.37 -0.51,-0.24 -1.05,-0.46 -1.61,-0.63 -0.55,-0.18 -1.11,-0.32 -1.66,-0.4 -0.46,-0.06 -0.94,-0.08 -1.4,-0.03 -0.4,0.05 -0.79,0.14 -1.15,0.29 -0.31,0.14 -0.59,0.32 -0.83,0.53 -0.25,0.22 -0.47,0.48 -0.64,0.77 -0.17,0.27 -0.3,0.57 -0.4,0.88 -0.11,0.32 -0.19,0.67 -0.25,1.02 -0.08,0.4 -0.14,0.8 -0.18,1.18 -0.04,0.41 -0.07,0.81 -0.07,1.2 -0.01,0.46 0.01,0.92 0.04,1.38 0.27,-0.46 0.59,-0.87 0.96,-1.25 1.08,-1.07 2.56,-1.74 4.21,-1.74 1.04,0 2.02,0.27 2.87,0.74l0.07 0.04c0.84,0.48 1.55,1.16 2.07,1.96 0.01,0.03 0.03,0.05 0.05,0.08 0.8,1.4 1.43,2.93 1.86,4.56 0.41,1.59 0.63,3.26 0.63,4.98 0,0.75 -0.04,1.49 -0.12,2.23 -0.09,0.74 -0.21,1.47 -0.37,2.18 -0.02,0.07 -0.04,0.13 -0.07,0.18 -0.1,0.45 -0.17,0.91 -0.23,1.37 -0.06,0.51 -0.09,1.03 -0.09,1.57 0,1.54 0.26,3.02 0.73,4.4 0.49,1.42 1.21,2.75 2.11,3.91 0.03,0.03 0.05,0.07 0.07,0.1 0.43,0.53 0.88,1.06 1.33,1.59l0.42 0.48 0.2 0.23c1.41,-3.05 2.67,-6.27 3.77,-9.63 1.2,-3.66 2.2,-7.47 2.96,-11.42 0.36,-1.84 0.66,-3.67 0.9,-5.47 0.25,-1.82 0.44,-3.63 0.57,-5.45 0.04,-0.44 0.43,-0.78 0.87,-0.75 0.45,0.04 0.79,0.43 0.75,0.87 -0.13,1.82 -0.33,3.67 -0.58,5.55 -0.25,1.85 -0.55,3.7 -0.91,5.56 -0.78,4.01 -1.8,7.89 -3.01,11.61 -1.24,3.8 -2.7,7.43 -4.34,10.87l-0.33 0.83c-0.07,0.17 -0.13,0.33 -0.16,0.43 -0.05,0.13 -0.09,0.27 -0.13,0.41 -0.05,0.17 -0.08,0.32 -0.08,0.44 0,0.09 0.01,0.19 0.06,0.28 0.07,0.15 0.18,0.3 0.31,0.44 0.15,0.16 0.33,0.33 0.5,0.47 0.28,0.25 0.57,0.48 0.87,0.71 0.28,0.21 0.59,0.42 0.92,0.64 0.44,0.29 0.87,0.55 1.27,0.78 0.4,0.23 0.84,0.47 1.32,0.72 0.47,0.23 0.91,0.44 1.34,0.63 0.42,0.18 0.87,0.36 1.34,0.53 0.27,0.09 0.54,0.18 0.81,0.27 0.33,0.11 0.59,0.19 0.81,0.26l0.55 0.16c0.95,-3.36 1.71,-6.86 2.27,-10.48 0.59,-3.8 0.95,-7.73 1.07,-11.75 0.06,-1.87 0.06,-3.72 0,-5.54 -0.05,-1.82 -0.16,-3.64 -0.32,-5.47 -0.03,-0.45 0.3,-0.84 0.74,-0.88 0.45,-0.04 0.85,0.29 0.89,0.74 0.15,1.79 0.26,3.65 0.32,5.56 0.05,1.86 0.05,3.74 -0.01,5.64 -0.12,4.08 -0.49,8.08 -1.09,11.95 -0.61,3.97 -1.47,7.81 -2.53,11.47 -0.01,0.04 -0.03,0.07 -0.04,0.1l-0.34 1.24c-0.08,0.28 -0.15,0.54 -0.21,0.77 -0.04,0.17 -0.08,0.34 -0.08,0.47 -0.01,0.07 0,0.14 0.04,0.21 0.07,0.13 0.2,0.28 0.35,0.42 0.19,0.18 0.4,0.34 0.58,0.48 0.39,0.29 0.82,0.57 1.25,0.84 0.45,0.28 0.89,0.53 1.33,0.77 0.47,0.27 0.95,0.52 1.43,0.74 0.49,0.23 0.98,0.44 1.47,0.61 0.41,0.14 0.85,0.26 1.3,0.37 0.44,0.1 0.89,0.19 1.34,0.26l0 0c0.36,0.05 0.7,0.1 1,0.13 0.31,0.04 0.62,0.06 0.95,0.06 0.33,0 0.64,-0.02 0.95,-0.06 0.3,-0.03 0.64,-0.08 1,-0.13l0.02 -0.01c0.45,-0.07 0.89,-0.15 1.32,-0.25 0.45,-0.11 0.89,-0.23 1.3,-0.37 0.49,-0.17 0.98,-0.38 1.47,-0.61 0.48,-0.22 0.96,-0.47 1.43,-0.74 0.44,-0.24 0.88,-0.49 1.33,-0.77 0.43,-0.27 0.86,-0.55 1.25,-0.84 0.18,-0.14 0.39,-0.3 0.58,-0.48 0.15,-0.14 0.28,-0.29 0.35,-0.42l0.02 -0.04c0.02,-0.05 0.03,-0.11 0.02,-0.17 0,-0.13 -0.04,-0.3 -0.08,-0.47l0 0 -0.1 -0.38 -0.48 -1.73 -0.01 -0.04c-1.06,-3.66 -1.91,-7.48 -2.52,-11.43 -0.6,-3.87 -0.98,-7.87 -1.09,-11.95 -0.06,-1.9 -0.06,-3.78 -0.01,-5.64 0.06,-1.91 0.16,-3.77 0.32,-5.56 0.04,-0.45 0.44,-0.78 0.88,-0.74 0.45,0.04 0.78,0.43 0.74,0.88 -0.16,1.83 -0.26,3.65 -0.32,5.47 -0.05,1.82 -0.05,3.67 0.01,5.54 0.11,4.02 0.48,7.95 1.07,11.75 0.56,3.61 1.32,7.12 2.26,10.48l0.55 -0.16zm-49.89 -32.49c0.11,0.27 0.23,0.53 0.35,0.79 0.31,0.69 0.68,1.37 1.08,2.04 0.4,0.66 0.84,1.3 1.29,1.92 0.76,1.03 1.56,2 2.36,2.98 0.42,0.5 0.83,1 1.18,1.43 0.38,0.47 0.75,0.95 1.1,1.44 0.35,0.5 0.69,1.02 0.99,1.57 0.28,0.5 0.53,0.99 0.78,1.48 -0.05,-0.47 -0.07,-0.96 -0.07,-1.45 0,-0.59 0.03,-1.17 0.1,-1.75 0.07,-0.59 0.17,-1.17 0.3,-1.73 0.01,-0.06 0.03,-0.12 0.06,-0.18 0.13,-0.59 0.23,-1.2 0.3,-1.82 0.07,-0.66 0.11,-1.34 0.11,-2.05 0,-1.59 -0.2,-3.13 -0.57,-4.57 -0.39,-1.47 -0.95,-2.84 -1.66,-4.09l-0.03 -0.04c-0.38,-0.61 -0.9,-1.11 -1.52,-1.47l-0.05 -0.02c-0.62,-0.35 -1.33,-0.54 -2.09,-0.54 -1.2,0 -2.28,0.48 -3.06,1.27 -0.78,0.78 -1.27,1.86 -1.27,3.05 0,0.28 0.03,0.54 0.07,0.78 0.05,0.25 0.12,0.5 0.21,0.75 0.02,0.07 0.04,0.14 0.04,0.21zm67.55 -3.99c-0.71,1.25 -1.27,2.62 -1.65,4.09 -0.38,1.44 -0.58,2.98 -0.58,4.57 0,0.71 0.04,1.39 0.11,2.05 0.07,0.62 0.17,1.23 0.3,1.82 0.03,0.06 0.05,0.12 0.06,0.18 0.13,0.56 0.24,1.14 0.3,1.73 0.07,0.58 0.1,1.16 0.1,1.75 0,0.5 -0.02,0.99 -0.07,1.48 0.25,-0.5 0.5,-1 0.79,-1.51 0.31,-0.55 0.64,-1.07 0.99,-1.57 0.35,-0.49 0.72,-0.97 1.1,-1.44 0.35,-0.43 0.76,-0.93 1.18,-1.43 0.8,-0.98 1.61,-1.96 2.36,-2.98 0.45,-0.61 0.89,-1.25 1.29,-1.92 0.4,-0.67 0.77,-1.35 1.08,-2.04 0.12,-0.25 0.23,-0.5 0.33,-0.76 0.01,-0.08 0.02,-0.17 0.05,-0.24 0.09,-0.25 0.16,-0.5 0.21,-0.75 0.04,-0.24 0.07,-0.5 0.07,-0.78 0,-1.19 -0.49,-2.27 -1.27,-3.05 -0.78,-0.79 -1.86,-1.27 -3.06,-1.27 -0.76,0 -1.47,0.19 -2.09,0.54l-0.05 0.02c-0.62,0.36 -1.14,0.86 -1.52,1.47l-0.03 0.04zm-34.17 -25.84c1.38,0 2.5,2.04 2.5,4.55 0,2.51 -0.39,4.55 -2.5,4.55 -2.11,0 -2.51,-2.04 -2.51,-4.55 0,-2.51 1.13,-4.55 2.51,-4.55zm4.25 9.27c2.12,0 3.86,2.7 3.86,4.56 0,2.05 -0.4,3.71 -3.86,3.71 -3.46,0 -3.86,-1.66 -3.86,-3.71 0,-1.86 1.74,-4.56 3.86,-4.56zm4.25 -9.27c1.38,0 2.51,2.04 2.51,4.55 0,2.51 -0.4,4.55 -2.51,4.55 -2.11,0 -2.5,-2.04 -2.5,-4.55 0,-2.51 1.12,-4.55 2.5,-4.55z"/></g></g><text x="0" y="115" fill="#000000" font-size="5px" font-weight="bold" font-family="'Helvetica Neue', Helvetica, Arial-Unicode, Arial, Sans-serif">Created by Nur Faizah</text><text x="0" y="120" fill="#000000" font-size="5px" font-weight="bold" font-family="'Helvetica Neue', Helvetica, Arial-Unicode, Arial, Sans-serif">from the Noun Project</text></svg>